PathFileType	4	(X/Y/Z)	D:\TRACE\spotREDO_2-26-24\spot_Both_Motion_1_10-v60.trc
DataRate	CameraRate	NumFrames	NumMarkers	Units	OrigDataRate	OrigDataStartFrame	OrigNumFrames
100.00	100.00	      21	9	mm	100.00	1751	      7000
Frame#	Time	front left toe			Front right toe			aft left toe			aft right toe			Arm			FL body			FR body			AL Body			AR Body			
		X1	Y1	Z1	X2	Y2	Z2	X3	Y3	Z3	X4	Y4	Z4	X5	Y5	Z5	X6	Y6	Z6	X7	Y7	Z7	X8	Y8	Z8	X9	Y9	Z9	

1751	17.500	-205.53821	30.51219	-425.78119	114.43177	31.85996	-476.22427	-240.29045	12.81090	142.33281	108.10651	16.85824	106.89191	-44.53791	753.98859	-758.98633	-106.88113	609.25494	-531.43848	47.98446	615.76459	-528.82837	-127.96336	546.11841	350.25781	13.01524	551.86041	354.85318	
1752	17.510	-206.89862	30.40438	-425.70990	112.29535	32.11823	-476.05920	-242.14496	12.64612	142.59525	101.34251	17.62715	108.06553	-45.54762	754.24542	-758.83301	-110.52711	610.82507	-532.00702	44.41670	616.17761	-529.54321	-130.84250	546.90161	349.70029	10.05919	551.89758	354.07849	
1753	17.520	-207.63336	30.25615	-425.94531	110.89188	31.93692	-476.33273	-242.76135	12.70301	142.08521	100.62152	17.74064	108.26996	-46.98149	754.41577	-758.42084	-113.90061	612.31726	-532.53680	41.48778	616.62744	-530.04803	-134.78963	547.84967	349.02914	6.78542	551.47400	353.50729	
1754	17.530	-208.38574	30.21880	-426.20779	110.22506	32.19304	-476.06577	-243.49983	12.72446	141.88803	99.30880	17.66869	108.21143	-47.60051	754.30188	-758.35217	-117.12820	613.51062	-533.14478	38.05609	616.17084	-530.40332	-137.85851	548.73224	348.54758	3.35838	551.85065	352.84732	
1755	17.540	-209.60637	29.85701	-426.38913	109.82687	32.01807	-476.29156	-244.69472	12.84262	142.01154	98.60369	18.10070	108.08348	-47.39153	754.15454	-758.40735	-120.24811	614.61365	-533.60913	36.40404	616.91907	-531.44897	-140.49100	549.90985	348.00851	0.30628	552.34570	352.44257	
1756	17.550	-210.59891	29.24747	-426.43488	108.52485	31.98452	-476.64471	-245.64743	12.50868	141.83847	97.00944	18.10428	107.95155	-46.63240	754.04578	-758.10120	-123.30727	615.17700	-533.79651	32.02164	617.83575	-531.77618	-143.45445	550.62976	347.75122	-2.26518	552.95117	351.82870	
1757	17.560	-211.44383	28.93388	-426.44540	107.49168	31.99565	-476.86188	-246.19052	12.29003	141.87463	96.08796	18.47107	108.04255	-45.87647	753.73022	-757.91614	-126.07338	615.66699	-534.44214	28.75097	618.34961	-531.93420	-145.98393	551.18280	347.17630	-4.47824	553.37476	351.44305	
1758	17.570	-212.68074	28.63710	-426.18622	106.75698	31.92861	-477.12119	-247.43494	12.31284	141.76491	94.94281	18.35983	108.11481	-44.89842	753.44324	-758.03278	-128.61418	615.99255	-534.98407	26.43185	617.88782	-532.38373	-148.24936	552.01288	346.68234	-7.20832	554.03632	350.94913	
1759	17.580	-213.40395	28.13775	-426.47433	106.25229	32.13804	-476.98230	-248.07019	12.42988	141.64326	94.42774	18.45549	107.99278	-44.33007	753.13879	-757.87360	-130.99884	616.12695	-535.43774	24.33128	618.04346	-532.70801	-150.91504	552.50586	346.33698	-9.83960	554.66772	350.52490	
1760	17.590	-214.13100	27.88977	-426.75928	104.88647	31.68535	-477.10831	-249.07590	12.51974	141.42052	93.11858	18.43499	107.98813	-44.37469	752.80280	-757.50043	-132.82445	616.26868	-535.92975	22.49736	618.51770	-533.27332	-153.54922	552.85541	345.74835	-12.27602	555.43817	350.05286	
1761	17.600	-214.98238	27.84296	-426.94540	104.28635	31.46077	-477.14294	-249.99727	12.43873	141.25839	91.96177	18.66362	107.80348	-44.97398	752.19049	-757.27008	-134.43404	616.07599	-536.51776	21.10232	618.68896	-533.62299	-155.88898	553.42108	345.11157	-14.82625	556.09473	349.61008	
1762	17.610	-215.74837	27.90712	-427.10400	103.86745	31.42405	-477.12811	-250.60616	12.24107	141.35251	91.62840	18.84314	107.71761	-45.80237	752.04822	-756.98889	-135.41682	615.99493	-537.16840	19.78950	618.64880	-534.08594	-158.42538	554.01056	344.56046	-17.08975	556.74908	349.25757	
1763	17.620	-216.27295	27.69457	-427.17529	103.06216	31.03012	-477.31683	-251.62306	12.26886	141.11609	90.08057	18.76015	107.56676	-47.16637	751.76019	-756.59106	-136.27568	616.05042	-537.75159	19.07157	618.38770	-533.75928	-160.82373	554.33246	344.06177	-19.71285	557.47095	348.86679	
1764	17.630	-216.98061	27.46609	-427.31613	102.22053	30.56174	-477.32404	-252.40056	12.25967	140.86958	89.16124	18.69753	107.47433	-48.92380	751.71405	-756.93359	-137.28059	615.95337	-538.31464	18.04593	618.69354	-534.62695	-162.85043	554.61584	343.57870	-21.63105	557.85443	348.65536	
1765	17.640	-217.58299	27.21825	-427.67999	101.35387	30.23177	-477.41241	-253.06018	12.20588	140.79208	88.90082	19.07875	107.74647	-50.50275	751.62933	-756.67139	-138.24347	615.77838	-538.81396	16.88142	618.72192	-535.13538	-164.54907	554.74646	342.89966	-23.49912	558.27045	348.15024	
1766	17.650	-218.33437	27.09104	-427.91418	101.05170	30.21434	-477.23010	-253.89308	12.05613	140.67181	87.85561	18.93574	107.37134	-51.92160	751.72559	-756.52356	-139.16757	615.55017	-539.21515	16.20557	618.89691	-535.36139	-166.15627	554.96814	342.38153	-24.87172	558.55048	347.72406	
1767	17.660	-219.22649	27.19775	-427.88571	100.41405	29.95985	-477.41458	-254.44177	12.15676	140.61925	87.18282	18.83795	107.28692	-52.96632	751.84558	-756.32086	-140.16156	615.41711	-539.47925	14.81519	619.07123	-535.82703	-167.01820	554.92828	342.11935	-25.93052	558.93329	347.63681	
1768	17.670	-219.77719	26.95415	-427.96564	99.41608	29.76503	-477.69876	-254.99290	12.24896	140.58160	86.48912	18.85023	107.21307	-54.11658	752.21204	-756.79700	-141.52232	615.36823	-539.90149	13.88201	619.20068	-535.94824	-167.75703	555.14490	341.90033	-26.60583	559.15576	347.13980	
1769	17.680	-220.49727	26.66013	-427.91711	98.28584	29.79935	-477.80063	-255.48407	12.41622	140.43776	86.10603	18.82321	107.08091	-54.73751	752.35925	-756.90472	-142.71771	615.02350	-540.03937	12.39716	619.32745	-536.44562	-168.64436	555.47717	341.56873	-27.50123	559.61023	346.73529	
1770	17.690	-221.06407	26.31718	-427.90637	97.96249	29.59579	-477.99561	-256.11975	12.71031	140.45926	85.79256	18.72293	106.94534	-55.19796	752.44666	-756.98346	-144.15710	615.07117	-540.40723	11.09055	619.16022	-536.75140	-169.03412	555.65491	341.26831	-27.73755	559.75421	346.43134	
1771	17.700	-221.69632	25.92376	-427.95313	97.28763	29.49994	-478.09888	-256.32776	12.73194	140.45769	85.40218	18.77300	106.87321	-55.46406	752.32458	-757.18506	-145.38649	614.78387	-540.58038	9.81848	618.87488	-537.35345	-169.31615	555.87695	341.16522	-28.05109	559.95758	346.18347	
